<?xml version="1.0" encoding="iso-8859-1"?>
<!-- Generator: Adobe Illustrator 18.0.0, SVG Export Plug-In . SVG Version: 6.00 Build 0)  -->
<!DOCTYPE svg PUBLIC "-//W3C//DTD SVG 1.1//EN" "http://www.w3.org/Graphics/SVG/1.1/DTD/svg11.dtd">
<svg version="1.1" id="Capa_1" xmlns="http://www.w3.org/2000/svg" xmlns:xlink="http://www.w3.org/1999/xlink" x="0px" y="0px"
	 viewBox="0 0 331.731 331.731" style="enable-background:new 0 0 331.731 331.731;" xml:space="preserve">
<path d="M321.061,185.916L284.568,23.391l16.589-3.929L296.548,0L175.866,28.586V11.731h-20v21.592L30.574,63l4.609,19.462
	l10.502-2.488L10.669,235.916H4.417c0,29.721,24.094,53.815,53.817,53.815c29.722,0,53.816-24.094,53.816-53.815h-6.253
	L69.515,74.33l86.351-20.453v257.854h-47.632v20h115.264v-20h-47.632V49.139l85.317-20.208l-35.249,156.985h-6.253
	c0,29.721,24.095,53.815,53.816,53.815c29.723,0,53.817-24.094,53.817-53.815H321.061z M85.3,235.916H31.167l27.066-120.54
	L85.3,235.916z M246.431,185.916l27.066-120.54l27.066,120.54H246.431z" fill="currentColor"/>
</svg>
