<?xml version="1.0" standalone="no"?>
<!DOCTYPE svg PUBLIC "-//W3C//DTD SVG 20010904//EN"
 "http://www.w3.org/TR/2001/REC-SVG-20010904/DTD/svg10.dtd">
<svg version="1.0" xmlns="http://www.w3.org/2000/svg"
 width="240.000000pt" height="240.000000pt" viewBox="0 0 240.000000 240.000000"
 preserveAspectRatio="xMidYMid meet">
<metadata>
Created by potrace 1.14, written by Peter Selinger 2001-2017
</metadata>
<g transform="translate(0.000000,240.000000) scale(0.100000,-0.100000)"
fill="#000000" stroke="none">
<path d="M92 2311 c-4 -4 -8 -77 -8 -165 l1 -159 393 -393 394 -394 -155 -155
c-85 -85 -157 -152 -161 -148 -3 3 -6 20 -6 36 0 20 -11 40 -34 63 -28 28 -41
34 -78 34 -62 -1 -117 -52 -113 -105 1 -11 2 -30 3 -41 3 -32 48 -71 90 -79
22 -4 51 -20 73 -42 l37 -35 -27 -26 c-14 -15 -49 -54 -76 -87 -28 -33 -60
-71 -72 -85 -59 -68 -73 -86 -73 -92 0 -14 -21 -8 -47 12 -49 38 -97 15 -88
-44 5 -29 2 -34 -29 -48 -99 -48 -128 -190 -54 -274 56 -63 144 -82 216 -45
42 22 63 43 86 88 15 30 18 31 41 21 21 -9 28 -8 45 7 25 23 25 46 0 78 -21
27 -25 43 -11 49 4 2 30 21 56 43 26 22 80 67 119 99 39 32 80 69 92 81 l20
22 43 -40 c28 -25 45 -51 48 -71 13 -86 86 -132 160 -101 104 44 85 197 -27
219 -31 5 -60 17 -60 23 0 2 70 75 155 160 l155 155 155 -155 c85 -85 155
-157 155 -160 0 -6 -28 -18 -60 -23 -113 -22 -131 -175 -26 -219 32 -14 83 -8
112 13 21 15 44 57 44 82 0 23 70 110 89 110 3 0 21 -12 38 -28 46 -40 118
-101 200 -168 l71 -59 -24 -26 c-29 -31 -31 -60 -4 -84 16 -15 25 -16 44 -7
23 10 26 8 44 -26 10 -20 35 -50 56 -66 32 -26 47 -31 97 -33 69 -2 105 13
148 62 74 85 45 222 -60 275 -33 17 -37 23 -28 38 7 12 7 25 0 45 -14 35 -53
36 -87 2 l-24 -24 -108 126 c-59 70 -117 138 -129 151 -13 14 -23 28 -23 32 0
17 80 79 94 74 23 -9 74 26 91 63 22 46 11 100 -29 136 -27 25 -37 28 -80 24
-40 -4 -55 -11 -78 -36 -17 -19 -28 -43 -28 -59 0 -16 -3 -32 -6 -35 -4 -4
-76 63 -161 148 l-155 155 393 392 393 393 1 163 c0 104 -3 162 -10 163 -5 1
-79 2 -164 3 l-153 1 -394 -393 -394 -394 -393 393 -392 393 -158 1 c-86 1
-161 -1 -165 -4z"/>
</g>
</svg>
